#!OML:ASF H:\Terrain\Patient Classification 1\Walking\liu\liu.ASF
:FULLY-SPECIFIED
:DEGREES
236
root 9.25327 17.3219 10.8699 6.45568 -3.66505 0.875665
lowerback -5.5717 0.823218 -1.11842
upperback -1.42049 1.13164 1.41165
thorax 1.61087 0.561662 2.15646
lowerneck -21.9388 -1.58328 -11.3869
upperneck 16.0561 -0.0503197 7.11604
head 8.6122 0.0422581 4.29848
rclavicle -2.78299e-015 -1.51076e-014
rhumerus -30.1033 17.1169 -86.3459
rradius 38.8241
rwrist -16.61
rhand -30.2571 -25.9177
rfingers 7.12502
rthumb -3.56577 -55.8676
lclavicle -2.78299e-015 -1.51076e-014
lhumerus -38.83 1.16358 84.8946
lradius 16.8542
lwrist -11.3781
lhand -15.9403 -30.361
lfingers 7.12502
lthumb 10.2578 -0.631104
rfemur -22.6039 -4.34226 19.3569
rtibia 72.1252
rfoot 1.30376 -14.1785
rtoes -22.4539
lfemur -19.7415 3.74202 -27.2216
ltibia 22.3136
lfoot -10.3935 5.44712
ltoes 2.59025
237
root 9.27031 17.3369 11.0488 6.39167 -3.14139 0.951663
lowerback -5.54314 0.501888 -1.18016
upperback -1.36787 0.704949 1.50035
thorax 1.66642 0.347423 2.25396
lowerneck -22.4089 -1.4857 -11.4107
upperneck 16.5713 0.106136 7.25264
head 8.85316 0.1245 4.39098
rclavicle 5.479e-015 -3.18055e-015
rhumerus -30.5388 17.623 -86.6503
rradius 38.398
rwrist -16.3488
rhand -30.31 -24.936
rfingers 7.12502
rthumb -3.61682 -54.8851
lclavicle 5.479e-015 -3.18055e-015
lhumerus -37.8719 -1.35728 86.6556
lradius 17.7866
lwrist -8.2797
lhand -15.9641 -29.4931
lfingers 7.12502
lthumb 10.2348 0.237936
rfemur -23.8947 -4.82906 19.4327
rtibia 72.2955
rfoot -0.256965 -14.4741
rtoes -20.3837
lfemur -18.7548 3.48885 -27.359
ltibia 21.9644
lfoot -10.9398 5.38141
ltoes 2.06214
238
root 9.28792 17.3452 11.2305 6.2744 -2.63679 1.0529
lowerback -5.59535 0.163352 -1.2822
upperback -1.19944 0.257529 1.57572
thorax 1.88922 0.119895 2.35988
lowerneck -23.3077 -1.44022 -11.1617
upperneck 17.2934 0.202749 7.1287
head 9.24928 0.167723 4.35156
rclavicle 3.60297e-015 2.78299e-014
rhumerus -30.8919 18.0727 -86.9689
rradius 37.9927
rwrist -16.1964
rhand -30.556 -23.6027
rfingers 7.12502
rthumb -3.85441 -53.5476
lclavicle 3.60297e-015 2.78299e-014
lhumerus -36.7136 -2.8467 87.6879
lradius 18.4941
lwrist -6.47671
lhand -16.1698 -29.1264
lfingers 7.12502
lthumb 10.0364 0.614308
rfemur -25.1075 -5.24371 19.4737
rtibia 72.359
rfoot -1.9891 -14.5172
rtoes -16.9473
lfemur -17.7258 3.16263 -27.5247
ltibia 21.6882
lfoot -11.6168 5.57725
ltoes 0.556223
239
root 9.30707 17.342 11.4081 6.12267 -2.0778 1.12295
lowerback -5.59228 -0.118986 -1.36467
upperback -0.978045 -0.117965 1.69688
thorax 2.13465 -0.0727889 2.50516
lowerneck -24.1212 -1.50049 -10.9772
upperneck 17.8546 0.204746 6.84184
head 9.58898 0.144536 4.24558
rclavicle 1.40392e-014 7.15625e-015
rhumerus -31.0188 18.2342 -87.0517
rradius 37.3478
rwrist -16.1429
rhand -31.1224 -23.0119
rfingers 7.12502
rthumb -4.40129 -52.9461
lclavicle 1.40392e-014 7.15625e-015
lhumerus -35.3423 -3.97241 88.4133
lradius 19.1182
lwrist -5.74474
lhand -15.9453 -28.7641
lfingers 7.12502
lthumb 10.2529 0.965998
rfemur -26.2153 -5.66546 19.5579
rtibia 72.2227
rfoot -3.59929 -14.0636
rtoes -16.3454
lfemur -16.8011 2.83033 -27.6677
ltibia 21.5625
lfoot -12.3444 5.48579
ltoes -0.12798
240
root 9.32075 17.3183 11.5763 6.0603 -1.44663 1.14784
lowerback -5.45096 -0.357057 -1.33761
upperback -1.09759 -0.437568 1.73389
thorax 1.94988 -0.229211 2.50498
lowerneck -23.9069 -1.49435 -10.7434
upperneck 18.2153 0.180545 6.4919
head 9.68324 0.097 4.08482
rclavicle -1.67476e-014 -1.27222e-014
rhumerus -32.004 17.9105 -87.2573
rradius 37.2336
rwrist -15.8142
rhand -31.4319 -24.0777
rfingers 7.12502
rthumb -4.70021 -54.0055
lclavicle -1.67476e-014 -1.27222e-014
lhumerus -34.4721 -5.23778 88.935
lradius 19.8391
lwrist -5.06726
lhand -15.3536 -28.0717
lfingers 7.12502
lthumb 10.8237 1.62936
rfemur -27.4662 -6.17702 19.7646
rtibia 71.9107
rfoot -4.70154 -13.4691
rtoes -17.6997
lfemur -16.1803 2.79428 -27.7963
ltibia 21.7755
lfoot -12.8834 5.02264
ltoes -1.05424
241
root 9.32352 17.3065 11.7412 6.15522 -0.782684 1.04194
lowerback -5.27112 -0.642139 -1.29639
upperback -1.3454 -0.81998 1.79541
thorax 1.61535 -0.41448 2.52055
lowerneck -23.4542 -1.36327 -10.6166
upperneck 18.2477 0.242405 6.58586
head 9.60842 0.140486 4.10208
rclavicle -5.14355e-015 2.3059e-014
rhumerus -33.3938 17.8056 -87.637
rradius 37.621
rwrist -15.5899
rhand -31.5039 -25.3878
rfingers 7.12502
rthumb -4.76973 -55.3141
lclavicle -5.14355e-015 2.3059e-014
lhumerus -33.6816 -6.53679 89.3782
lradius 20.3919
lwrist -4.09856
lhand -15.1334 -27.8473
lfingers 7.12502
lthumb 11.0361 1.84253
rfemur -28.8254 -6.51661 20.2262
rtibia 71.3147
rfoot -5.62784 -13.194
rtoes -18.8085
lfemur -15.8138 2.65783 -27.6876
ltibia 22.1085
lfoot -13.2552 4.7276
ltoes -1.55714
242
root 9.32995 17.2977 11.9134 6.17935 -0.179425 0.799784
lowerback -5.20274 -0.902674 -1.19224
upperback -1.33415 -1.17713 2.0083
thorax 1.61031 -0.592878 2.65838
lowerneck -23.753 -1.33674 -10.5671
upperneck 18.4447 0.288938 6.59742
head 9.72605 0.165919 4.11446
rclavicle -1.27719e-014 1.19271e-014
rhumerus -34.2954 18.2128 -87.8204
rradius 37.9783
rwrist -15.7758
rhand -31.453 -25.3753
rfingers 7.12502
rthumb -4.72059 -55.3027
lclavicle -1.27719e-014 1.19271e-014
lhumerus -32.503 -8.31327 90.1597
lradius 20.9534
lwrist -2.77079
lhand -15.2239 -28.0514
lfingers 7.12502
lthumb 10.9488 1.64313
rfemur -29.9778 -6.69014 20.7547
rtibia 70.529
rfoot -6.59695 -12.8384
rtoes -18.7881
lfemur -15.3617 2.4312 -27.3514
ltibia 22.3691
lfoot -13.7952 4.25661
ltoes 0.760814
243
root 9.34094 17.289 12.0925 6.00145 0.270178 0.939057
lowerback -5.16461 -1.09056 -1.42463
upperback -1.21135 -1.41883 2.11641
thorax 1.73698 -0.717168 2.88423
lowerneck -23.9333 -1.38089 -10.3123
upperneck 18.6948 0.285337 6.04641
head 9.85042 0.111907 3.882
rclavicle -1.21383e-014 3.18055e-015
rhumerus -34.9895 18.1702 -87.7537
rradius 38.0302
rwrist -15.5951
rhand -31.4402 -24.4927
rfingers 7.12502
rthumb -4.70823 -54.4204
lclavicle -1.21383e-014 3.18055e-015
lhumerus -31.3879 -10.2743 90.9692
lradius 21.7147
lwrist -1.54813
lhand -15.0534 -27.9755
lfingers 7.12502
lthumb 11.1132 1.71025
rfemur -30.8882 -6.82881 20.7471
rtibia 69.5991
rfoot -7.63349 -12.1858
rtoes -17.9018
lfemur -14.5093 2.52556 -27.5019
ltibia 22.4714
lfoot -14.4057 3.68951
ltoes 1.2698
244
root 9.34752 17.2672 12.2672 5.89439 0.675096 1.55926
lowerback -5.08261 -1.28657 -2.20797
upperback -1.16996 -1.64008 2.11564
thorax 1.76886 -0.83211 3.3113
lowerneck -23.7346 -1.41574 -10.4971
upperneck 18.629 0.300792 5.96437
head 9.79136 0.0950178 3.88054
rclavicle 2.20403e-014 -1.03368e-014
rhumerus -35.7491 17.9619 -87.6076
rradius 37.8414
rwrist -15.3624
rhand -31.6411 -23.7989
rfingers 7.12502
rthumb -4.9022 -53.7222
lclavicle 2.20403e-014 -1.03368e-014
lhumerus -30.2564 -11.5016 91.4418
lradius 22.3238
lwrist -0.963259
lhand -14.5306 -27.6813
lfingers 7.12502
lthumb 11.6175 1.97664
rfemur -31.9337 -6.97723 20.2384
rtibia 68.612
rfoot -8.69508 -11.4784
rtoes -17.5227
lfemur -13.6344 2.52408 -28.1893
ltibia 22.425
lfoot -14.9649 3.4319
ltoes -0.228362
245
root 9.35425 17.2391 12.4461 5.91738 1.18273 1.90645
lowerback -5.06446 -1.5233 -2.7262
upperback -1.12772 -1.93093 2.19821
thorax 1.84356 -0.982038 3.66911
lowerneck -24.0794 -1.4689 -10.9102
upperneck 18.9083 0.310273 6.37812
head 9.94889 0.115913 4.11194
rclavicle 3.86885e-014 -3.97569e-015
rhumerus -36.3863 18.0897 -87.5862
rradius 37.5316
rwrist -15.5701
rhand -32.0951 -23.1698
rfingers 7.12502
rthumb -5.34058 -53.0825
lclavicle 3.86885e-014 -3.97569e-015
lhumerus -28.852 -12.0952 91.5585
lradius 22.7926
lwrist -1.00733
lhand -14.2204 -27.5443
lfingers 7.12502
lthumb 11.9166 2.09655
rfemur -32.9638 -7.1308 20.0506
rtibia 67.4623
rfoot -9.57524 -10.9929
rtoes -18.6066
lfemur -12.9158 2.20254 -28.5249
ltibia 22.3076
lfoot -15.4995 3.19713
ltoes 0.0795901
246
root 9.36859 17.2086 12.6265 5.87501 1.78728 2.40016
lowerback -5.02005 -1.75491 -3.16735
upperback -1.08506 -2.21567 2.09455
thorax 1.89916 -1.12811 3.79086
lowerneck -24.4365 -1.43982 -10.9723
upperneck 19.4192 0.335578 6.66715
head 10.1915 0.149691 4.25214
rclavicle 2.23633e-015 -1.03368e-014
rhumerus -36.9577 17.8332 -87.6805
rradius 37.2043
rwrist -15.6514
rhand -32.7487 -22.6864
rfingers 7.12502
rthumb -5.97158 -52.5823
lclavicle 2.23633e-015 -1.03368e-014
lhumerus -27.6235 -13.3262 91.6815
lradius 23.3952
lwrist -0.624604
lhand -14.373 -27.4682
lfingers 7.12502
lthumb 11.7695 2.18116
rfemur -33.8006 -7.4466 19.6047
rtibia 66.1283
rfoot -10.2381 -10.5295
rtoes -20.2035
lfemur -12.1723 1.71213 -29.058
ltibia 22.3962
lfoot -16.227 2.98119
ltoes 0.421136
247
root 9.37664 17.1794 12.7989 5.94892 2.32528 2.98712
lowerback -5.08754 -1.93122 -3.72251
upperback -1.07786 -2.41577 1.91571
thorax 1.97719 -1.23234 3.90184
lowerneck -24.2359 -1.37414 -10.9609
upperneck 19.4471 0.337373 6.91193
head 10.1638 0.17917 4.33856
rclavicle 1.18028e-014 -8.74653e-015
rhumerus -37.5534 17.169 -87.7044
rradius 37.0242
rwrist -15.4877
rhand -32.9046 -22.7521
rfingers 7.12502
rthumb -6.12215 -52.6437
lclavicle 1.18028e-014 -8.74653e-015
lhumerus -26.5274 -15.3285 91.929
lradius 23.9268
lwrist 0.365339
lhand -14.9844 -27.6832
lfingers 7.12502
lthumb 11.1798 1.9989
rfemur -34.7047 -7.60815 19.0681
rtibia 64.4695
rfoot -10.8807 -9.8516
rtoes -19.7531
lfemur -11.6663 0.89175 -29.6325
ltibia 22.6726
lfoot -17.0402 2.73961
ltoes 2.5267
248
root 9.36346 17.1594 12.9819 6.1311 2.60666 2.8955
lowerback -5.35641 -2.04147 -3.95627
upperback -0.993123 -2.54324 2.03063
thorax 2.24266 -1.30535 4.13338
lowerneck -24.2482 -1.37768 -11.0467
upperneck 19.2762 0.29729 7.20039
head 10.1068 0.194269 4.44736
rclavicle 1.69215e-014 -1.74931e-014
rhumerus -38.0855 16.7861 -87.6447
rradius 36.8661
rwrist -15.4482
rhand -32.4902 -22.9802
rfingers 7.12502
rthumb -5.72199 -52.8829
lclavicle 1.69215e-014 -1.74931e-014
lhumerus -25.146 -17.2919 92.0238
lradius 24.3914
lwrist 1.28311
lhand -15.4948 -27.5028
lfingers 7.12502
lthumb 10.6875 2.2054
rfemur -35.5728 -7.05484 19.4265
rtibia 62.3896
rfoot -11.5777 -9.46288
rtoes -19.9912
lfemur -11.2846 0.514744 -29.3853
ltibia 22.849
lfoot -17.6305 2.43058
ltoes 4.73994
